{
  "accessors": [
    {
      "bufferView": 2,
      "componentType": 5126,
      "count": 552,
      "max": [
        0.4593692123889923,
        0.479525089263916,
        0.7032709121704102
      ],
      "min": [
        -0.49769675731658936,
        -0.929291307926178,
        -0.1625519096851349
      ],
      "type": "VEC3"
    },
    {
      "bufferView": 2,
      "byteOffset": 6624,
      "componentType": 5126,
      "count": 552,
      "max": [
        1.0,
        1.0,
        0.9999877214431763
      ],
      "min": [
        -1.0,
        -1.0,
        -0.9999877214431763
      ],
      "type": "VEC3"
    },
    {
      "bufferView": 1,
      "componentType": 5126,
      "count": 552,
      "max": [
        0.9872986078262329,
        0.5352460741996765
      ],
      "min": [
        0.0021247672848403454,
        0.0971691906452179
      ],
      "type": "VEC2"
    },
    {
      "bufferView": 0,
      "componentType": 5125,
      "count": 810,
      "type": "SCALAR"
    },
    {
      "bufferView": 2,
      "byteOffset": 13248,
      "componentType": 5126,
      "count": 140,
      "max": [
        0.6253496408462524,
        0.4782147705554962,
        0.7633993625640869
      ],
      "min": [
        -0.5478982329368591,
        -0.929291307926178,
        -0.09554550796747208
      ],
      "type": "VEC3"
    },
    {
      "bufferView": 2,
      "byteOffset": 14928,
      "componentType": 5126,
      "count": 140,
      "max": [
        1.0,
        0.9965665340423584,
        0.8928725719451904
      ],
      "min": [
        -1.0,
        -0.49780166149139404,
        -0.8928725719451904
      ],
      "type": "VEC3"
    },
    {
      "bufferView": 1,
      "byteOffset": 4416,
      "componentType": 5126,
      "count": 140,
      "max": [
        0.9872986078262329,
        0.6635417938232422
      ],
      "min": [
        0.0021247672848403454,
        0.09716883301734924
      ],
      "type": "VEC2"
    },
    {
      "bufferView": 0,
      "byteOffset": 3240,
      "componentType": 5125,
      "count": 276,
      "type": "SCALAR"
    },
    {
      "bufferView": 2,
      "byteOffset": 16608,
      "componentType": 5126,
      "count": 152,
      "max": [
        0.441172331571579,
        0.3243081867694855,
        0.14773119986057281
      ],
      "min": [
        -0.4794999063014984,
        -0.35029155015945435,
        -0.13402292132377625
      ],
      "type": "VEC3"
    },
    {
      "bufferView": 2,
      "byteOffset": 18432,
      "componentType": 5126,
      "count": 152,
      "max": [
        1.0,
        0.9934092164039612,
        0.9998677372932434
      ],
      "min": [
        -1.0,
        -0.9921976923942566,
        -0.9998677968978882
      ],
      "type": "VEC3"
    },
    {
      "bufferView": 1,
      "byteOffset": 5536,
      "componentType": 5126,
      "count": 152,
      "max": [
        0.9872986078262329,
        0.687933623790741
      ],
      "min": [
        0.5179600119590759,
        0.34123629331588745
      ],
      "type": "VEC2"
    },
    {
      "bufferView": 0,
      "byteOffset": 4344,
      "componentType": 5125,
      "count": 240,
      "type": "SCALAR"
    },
    {
      "bufferView": 2,
      "byteOffset": 20256,
      "componentType": 5126,
      "count": 524,
      "max": [
        0.5704019665718079,
        0.5340585112571716,
        0.47559595108032227
      ],
      "min": [
        -0.6000770926475525,
        -0.5483924150466919,
        0.13678386807441711
      ],
      "type": "VEC3"
    },
    {
      "bufferView": 2,
      "byteOffset": 26544,
      "componentType": 5126,
      "count": 524,
      "max": [
        0.9586024880409241,
        0.9364229440689087,
        0.9999877214431763
      ],
      "min": [
        -0.9497316479682922,
        -0.9641500115394592,
        -0.9999877214431763
      ],
      "type": "VEC3"
    },
    {
      "bufferView": 1,
      "byteOffset": 6752,
      "componentType": 5126,
      "count": 524,
      "max": [
        0.9872986078262329,
        0.5352460741996765
      ],
      "min": [
        0.0021247672848403454,
        0.0971691906452179
      ],
      "type": "VEC2"
    },
    {
      "bufferView": 0,
      "byteOffset": 5304,
      "componentType": 5125,
      "count": 768,
      "type": "SCALAR"
    },
    {
      "bufferView": 2,
      "byteOffset": 32832,
      "componentType": 5126,
      "count": 152,
      "max": [
        0.48838385939598083,
        0.4482889771461487,
        0.4470669627189636
      ],
      "min": [
        -0.5219335556030273,
        -0.48297613859176636,
        0.16531285643577576
      ],
      "type": "VEC3"
    },
    {
      "bufferView": 2,
      "byteOffset": 34656,
      "componentType": 5126,
      "count": 152,
      "max": [
        0.8672909736633301,
        0.8904171586036682,
        0.9998677372932434
      ],
      "min": [
        -0.8672909736633301,
        -0.8733696341514587,
        -0.9998677372932434
      ],
      "type": "VEC3"
    },
    {
      "bufferView": 1,
      "byteOffset": 10944,
      "componentType": 5126,
      "count": 152,
      "max": [
        0.9872986078262329,
        0.687933623790741
      ],
      "min": [
        0.5179600119590759,
        0.34123629331588745
      ],
      "type": "VEC2"
    },
    {
      "bufferView": 0,
      "byteOffset": 8376,
      "componentType": 5125,
      "count": 240,
      "type": "SCALAR"
    },
    {
      "bufferView": 2,
      "byteOffset": 36480,
      "componentType": 5126,
      "count": 504,
      "max": [
        0.6941046714782715,
        -0.0750737339258194,
        0.8229940533638
      ],
      "min": [
        -0.23521414399147034,
        -1.0161572694778442,
        -0.15514016151428223
      ],
      "type": "VEC3"
    },
    {
      "bufferView": 2,
      "byteOffset": 42528,
      "componentType": 5126,
      "count": 504,
      "max": [
        0.9817468523979187,
        0.9034531116485596,
        0.9984581470489502
      ],
      "min": [
        -0.973696768283844,
        -0.9166308641433716,
        -0.9984581470489502
      ],
      "type": "VEC3"
    },
    {
      "bufferView": 1,
      "byteOffset": 12160,
      "componentType": 5126,
      "count": 504,
      "max": [
        0.9872986078262329,
        0.5352460741996765
      ],
      "min": [
        0.0021247672848403454,
        0.1617451012134552
      ],
      "type": "VEC2"
    },
    {
      "bufferView": 0,
      "byteOffset": 9336,
      "componentType": 5125,
      "count": 738,
      "type": "SCALAR"
    },
    {
      "bufferView": 2,
      "byteOffset": 48576,
      "componentType": 5126,
      "count": 152,
      "max": [
        0.6428515911102295,
        -0.1491072177886963,
        0.80131596326828
      ],
      "min": [
        -0.19000104069709778,
        -0.9453691840171814,
        -0.13346201181411743
      ],
      "type": "VEC3"
    },
    {
      "bufferView": 2,
      "byteOffset": 50400,
      "componentType": 5126,
      "count": 152,
      "max": [
        0.9829016327857971,
        0.8473249673843384,
        0.9958177208900452
      ],
      "min": [
        -0.9768548011779785,
        -0.8473244309425354,
        -0.9958180785179138
      ],
      "type": "VEC3"
    },
    {
      "bufferView": 1,
      "byteOffset": 16192,
      "componentType": 5126,
      "count": 152,
      "max": [
        0.9872986078262329,
        0.687933623790741
      ],
      "min": [
        0.5179600119590759,
        0.34123629331588745
      ],
      "type": "VEC2"
    },
    {
      "bufferView": 0,
      "byteOffset": 12288,
      "componentType": 5125,
      "count": 240,
      "type": "SCALAR"
    }
  ],
  "asset": {
    "extras": {
      "author": "Yecats (https://sketchfab.com/yecats131)",
      "license": "CC-BY-SA-4.0 (http://creativecommons.org/licenses/by-sa/4.0/)",
      "source": "https://sketchfab.com/3d-models/pile-of-books-42310baf18ef4802b4e3400f99b7bd5b",
      "title": "Pile of books"
    },
    "generator": "Sketchfab-12.66.0",
    "version": "2.0"
  },
  "bufferViews": [
    {
      "buffer": 0,
      "byteLength": 13248,
      "name": "floatBufferViews",
      "target": 34963
    },
    {
      "buffer": 0,
      "byteLength": 17408,
      "byteOffset": 13248,
      "byteStride": 8,
      "name": "floatBufferViews",
      "target": 34962
    },
    {
      "buffer": 0,
      "byteLength": 52224,
      "byteOffset": 30656,
      "byteStride": 12,
      "name": "floatBufferViews",
      "target": 34962
    }
  ],
  "buffers": [
    {
      "byteLength": 82880,
      "uri": "scene.bin"
    }
  ],
  "materials": [
    {
      "doubleSided": true,
      "name": "Accent",
      "pbrMetallicRoughness": {
        "baseColorFactor": [
          1.0,
          0.9602083826516897,
          0.0,
          1.0
        ],
        "metallicFactor": 0.0,
        "roughnessFactor": 0.7809109769979335
      }
    },
    {
      "doubleSided": true,
      "name": "Paper",
      "pbrMetallicRoughness": {
        "baseColorFactor": [
          0.8,
          0.8,
          0.8,
          1.0
        ],
        "metallicFactor": 0.0,
        "roughnessFactor": 0.7809109769979335
      }
    },
    {
      "doubleSided": true,
      "name": "Cover",
      "pbrMetallicRoughness": {
        "baseColorFactor": [
          0.2438378681299503,
          0.14408137386136957,
          0.029475215642037846,
          1.0
        ],
        "metallicFactor": 0.0,
        "roughnessFactor": 0.7809109769979335
      }
    },
    {
      "doubleSided": true,
      "name": "Book2-Accent",
      "pbrMetallicRoughness": {
        "baseColorFactor": [
          0.1717234471995979,
          0.8125779896028634,
          1.0,
          1.0
        ],
        "metallicFactor": 0.0,
        "roughnessFactor": 0.8884936119926061
      }
    },
    {
      "doubleSided": true,
      "name": "Book2-Cover",
      "pbrMetallicRoughness": {
        "baseColorFactor": [
          0.042605626585869236,
          0.185355311301085,
          0.2953043464009595,
          1.0
        ],
        "metallicFactor": 0.0,
        "roughnessFactor": 0.8607628269923518
      }
    },
    {
      "doubleSided": true,
      "name": "Book1-Accent",
      "pbrMetallicRoughness": {
        "baseColorFactor": [
          0.49203814104980514,
          0.03737150278162485,
          0.03737150278162485,
          1.0
        ],
        "metallicFactor": 0.0,
        "roughnessFactor": 0.9569254353404338
      }
    },
    {
      "doubleSided": true,
      "name": "Book1-Cover",
      "pbrMetallicRoughness": {
        "baseColorFactor": [
          0.8282921100667168,
          0.20351986166900105,
          0.01306466105913553,
          1.0
        ],
        "metallicFactor": 0.0,
        "roughnessFactor": 0.9069513377975918
      }
    }
  ],
  "meshes": [
    {
      "name": "Book_Pile_Accent_0",
      "primitives": [
        {
          "attributes": {
            "NORMAL": 1,
            "POSITION": 0,
            "TEXCOORD_0": 2
          },
          "indices": 3,
          "material": 0,
          "mode": 4
        }
      ]
    },
    {
      "name": "Book_Pile_Paper_0",
      "primitives": [
        {
          "attributes": {
            "NORMAL": 5,
            "POSITION": 4,
            "TEXCOORD_0": 6
          },
          "indices": 7,
          "material": 1,
          "mode": 4
        }
      ]
    },
    {
      "name": "Book_Pile_Cover_0",
      "primitives": [
        {
          "attributes": {
            "NORMAL": 9,
            "POSITION": 8,
            "TEXCOORD_0": 10
          },
          "indices": 11,
          "material": 2,
          "mode": 4
        }
      ]
    },
    {
      "name": "Book_Pile_Book2-Accent_0",
      "primitives": [
        {
          "attributes": {
            "NORMAL": 13,
            "POSITION": 12,
            "TEXCOORD_0": 14
          },
          "indices": 15,
          "material": 3,
          "mode": 4
        }
      ]
    },
    {
      "name": "Book_Pile_Book2-Cover_0",
      "primitives": [
        {
          "attributes": {
            "NORMAL": 17,
            "POSITION": 16,
            "TEXCOORD_0": 18
          },
          "indices": 19,
          "material": 4,
          "mode": 4
        }
      ]
    },
    {
      "name": "Book_Pile_Book1-Accent_0",
      "primitives": [
        {
          "attributes": {
            "NORMAL": 21,
            "POSITION": 20,
            "TEXCOORD_0": 22
          },
          "indices": 23,
          "material": 5,
          "mode": 4
        }
      ]
    },
    {
      "name": "Book_Pile_Book1-Cover_0",
      "primitives": [
        {
          "attributes": {
            "NORMAL": 25,
            "POSITION": 24,
            "TEXCOORD_0": 26
          },
          "indices": 27,
          "material": 6,
          "mode": 4
        }
      ]
    }
  ],
  "nodes": [
    {
      "children": [
        1
      ],
      "matrix": [
        1.0,
        0.0,
        0.0,
        0.0,
        0.0,
        2.220446049250313e-16,
        -1.0,
        0.0,
        0.0,
        1.0,
        2.220446049250313e-16,
        0.0,
        0.0,
        0.0,
        0.0,
        1.0
      ],
      "name": "Sketchfab_model"
    },
    {
      "children": [
        2
      ],
      "matrix": [
        1.0,
        0.0,
        0.0,
        0.0,
        0.0,
        0.0,
        1.0,
        0.0,
        0.0,
        -1.0,
        0.0,
        0.0,
        0.0,
        0.0,
        0.0,
        1.0
      ],
      "name": "efa09e7d95d648ebbd6261f3213677a2.fbx"
    },
    {
      "children": [
        3
      ],
      "name": "RootNode"
    },
    {
      "children": [
        4,
        5,
        6,
        7,
        8,
        9,
        10
      ],
      "matrix": [
        100.0,
        0.0,
        0.0,
        0.0,
        0.0,
        -1.629206793918314e-05,
        -99.99999999999868,
        0.0,
        0.0,
        99.99999999999868,
        -1.629206793918314e-05,
        0.0,
        0.0,
        0.0,
        0.0,
        1.0
      ],
      "name": "Book_Pile"
    },
    {
      "mesh": 0,
      "name": "Book_Pile_Accent_0"
    },
    {
      "mesh": 1,
      "name": "Book_Pile_Paper_0"
    },
    {
      "mesh": 2,
      "name": "Book_Pile_Cover_0"
    },
    {
      "mesh": 3,
      "name": "Book_Pile_Book2-Accent_0"
    },
    {
      "mesh": 4,
      "name": "Book_Pile_Book2-Cover_0"
    },
    {
      "mesh": 5,
      "name": "Book_Pile_Book1-Accent_0"
    },
    {
      "mesh": 6,
      "name": "Book_Pile_Book1-Cover_0"
    }
  ],
  "scene": 0,
  "scenes": [
    {
      "name": "Sketchfab_Scene",
      "nodes": [
        0
      ]
    }
  ]
}
